<?xml version="1.0" encoding="utf-8"?>
<!-- Generator: Adobe Illustrator 19.2.1, SVG Export Plug-In . SVG Version: 6.00 Build 0)  -->
<svg version="1.1" id="Layer_1" xmlns="http://www.w3.org/2000/svg" xmlns:xlink="http://www.w3.org/1999/xlink" x="0px" y="0px"
	 viewBox="0 0 445 190" style="enable-background:new 0 0 445 190;" xml:space="preserve">
<style type="text/css">
	.st0{fill:#FFFFFF;}
</style>
<g>
	<path class="st0" d="M84.6,11.8c11.6,5.2,16.2,16.1,16.2,28.7c0,13.2-4.6,28.5-11.4,41c-12.1,22.1-30.2,40.5-50.7,40.5
		c-4.3,0-8-0.7-12-2.1c-15.3-5.7-21.2-19.1-21.2-33.9c0-37.6,33.5-70.7,53.9-77.8c3.6-1.2,7-1.8,10.7-1.8
		C76.5,6.5,81.5,8.6,84.6,11.8z M73.2,75.6c8.6-15.9,12.1-30.9,12.1-41.8c0-8.6-1.8-14.3-5.5-15.7c-7.9-2.9-28.9,8.9-45.1,33.7
		c-9.1,14.1-13,29.4-13,41c0,12.5,4.5,19.4,11.2,19.4C43.9,112.3,60.5,98.7,73.2,75.6z"/>
	<path class="st0" d="M128.8,46.8c0,3.4-1.2,8.6-3.2,14.3c4.3-1.1,9.1-3.6,14.5-7.5c3-2.1,4.8-2.5,7.1-0.2c2.5,2.5,5.2,7.1,5.2,11.4
		c0,2.1-0.9,4.6-2.9,7c-9.6,11.1-19.8,25.2-19.8,35.7c0,4.6,1.4,7.5,3.9,7.5c6.1,0,13.2-10,18.7-22.3c1.4-3.2,3.9-3.4,5.5-0.2
		c1.2,2.5,1.4,6.8-0.5,11.6c-4.3,10.2-14.8,17.8-25,17.8c-10.9,0-16.8-7.7-16.8-17.3c0-11.4,9.5-25.2,18.4-36c-4.6,2-9.1,2.7-13,2.9
		c-13.4,23.2-23.6,39.6-26.1,51.9c-0.7,3.2-3,4.8-6.2,1.4c-3-2.9-4.5-6.6-4.5-10.5s1.2-8.2,3.7-12.8c3-5.7,12.1-20.3,21.9-32.5
		c-2.1-2-3.4-4.3-3.4-6.6c0-9.1,11.4-21.8,17-21.8C127.2,40.6,128.8,42.7,128.8,46.8z"/>
	<path class="st0" d="M183.1,94.3c-4.3,0-8.6-1.2-12.7-3.9c-1.1,3.6-1.6,7.3-1.6,10.5c0,7.9,3.2,13.4,8.6,13.4
		c13.6,0,25.5-13.2,32.8-24.3c2-2.9,4.3-3.2,5.7,0.4c0.5,1.6,0.7,6.8-2.5,11.6c-7.5,10.9-21.8,19.3-35.7,19.5
		c-16.6,0.2-25.7-10.7-25.7-25c0-6.4,1.8-13.4,5.5-20.5c9.3-18.9,23.7-28.4,34.1-28.4c2.5,0,4.5,0.4,6.2,1.4c5,2.9,8.6,5.7,11.1,9.3
		c1.1,1.6,1.8,4.3,1.8,6.6C210.7,75.6,198.8,94.3,183.1,94.3z M172.9,83.6c1.4,0.9,2.7,1.2,3.9,1.2c4.3,0,10-5.4,13.6-10.2
		c5.2-7,8.9-15.3,7-17C194.7,55.6,181.5,66.5,172.9,83.6z"/>
	<path class="st0" d="M228.8,88.9c-4.6,9.3-9.8,19.6-13.9,28.7c12.8-7.7,21.4-17.7,28-27.3c2-3,5-3.6,6.2,0.4
		c0.5,1.8,0,6.2-2.7,11.1c-6.6,12-20.9,20.3-36.4,27.1c-9.8,22.8-23.2,52.1-37.5,58.5c-3.9,1.6-8.4,1.4-12.3-3.9
		c-2.5-3.7-5.7-10.3-5.7-16.2c0-2,0.5-4.6,1.6-7.9c5.2-15.5,20.5-26.6,38-33.4c11.4-27.8,27.3-60.1,36.8-74.8
		c2.3-3.6,4.6-3.7,7.1-1.2c1.8,2,2.7,4.8,2.7,8.4c0,3.4-0.7,7.5-2.9,11.8C235.9,74.5,232.7,81.3,228.8,88.9z M172,155
		c-6.6,10-8.9,19.1-7,21.6c1.6,2.1,6.4-5,13.4-17.5c3.6-6.4,7.7-14.5,12.3-23.2C182.5,141.4,176.3,148.4,172,155z M252.5,35.8
		c1.1,2,1.4,3.9,1.4,5.5c0,2.7-1.2,5.2-2.9,7c-3,3.6-9.6,3.2-12.8-2.7c-1.2-2.1-1.8-4.5-1.8-6.4c0-2.9,1.1-5.4,3-7.3
		c3.7-4.3,10.3-2,13,4.1V35.8z"/>
	<path class="st0" d="M288,47.4c6.4,0,10.3,3.2,12,7.9l3.4-5.5c2.1-3.6,5.2-3.7,7.3-1.2c3,3.6,4.6,11.4,0,20.7
		C306,78.9,291,98.4,291,110.3c0,2.7,0.7,4.3,2.5,4.3c6.4,0,15.3-12.1,21.2-23.7c2-3.6,3.6-3.7,5.4,0c0.7,1.6,1.8,6.4-0.7,11.6
		c-4.6,9.8-16.1,19.3-26.9,19.3c-8.9,0-14.1-4.6-15.5-11.2c-5.2,5-13.2,10.5-20.3,10.5c-10.5,0-16.2-7.7-16.2-18.2
		c0-7.7,3.2-17.7,9.6-26.6C264.3,55.7,278.9,47.4,288,47.4z M281.8,87.3c7-12.1,10.2-20.9,10.2-25.5c0-2.1-0.4-3.4-2.1-3.4
		c-3.6,0-15.9,11.2-25,25.9c-5.4,8.4-8.4,17.8-8.4,23.6c0,3.2,0.7,5.4,2.5,5.4C264.8,113.2,273,102.3,281.8,87.3z"/>
	<path class="st0" d="M346,57.5c0,1.2,0,2.5-0.2,3.6c7.7-7.1,16.2-13,22.7-13c5.2,0,10,6.2,10,13c0,3.9-3.2,9.6-8.9,19.6
		c-5.7,9.1-11.8,20.9-11.8,27.5c0,3.7,1.2,6.1,3.6,6.1c6.1,0,15.3-11.6,21.8-23.6c1.8-3.4,4.3-3.2,5.9-0.7c1.4,2.1,1.6,7.7-0.9,12.5
		c-5,9.8-18,19.3-28.7,19.3c-12,0-17.1-6.1-17.1-15.3c0-9.6,8.2-26.1,15.2-37.1c3.7-5.9,6.6-10.5,5.4-10.5c-1.6,0-10.3,5-20.2,16.1
		c-9.8,10.3-17.8,27.8-25.2,43.9c-1.2,2.9-3.6,3.9-6.4,1.1c-2.5-2.5-3.9-5.5-3.9-9.8c0-2.7,0.5-5.7,1.6-9.3
		c3.4-10,17.1-35,28.2-51.6c2.3-3.4,5-3.2,6.8,0C345.3,51.8,346,54.7,346,57.5z"/>
	<path class="st0" d="M439.8,83.2c-3.7,14.8-15.2,32.3-28.7,36.9c-1.6,0.5-3.7,1.1-6.4,1.1c-5.9,0-12.5-2.5-17.5-9.1
		c-3.4-4.5-5-9.8-5-15.5c0-7.9,2.9-16.6,7.5-25c8-14.3,19.3-23.2,31-23.2c5.2,0,8.4,2,11.8,6.6c5,5.9,10,7.1,8.4,22.3
		c4.6,0,5,1.6,3.6,3.4C443.2,82.2,441.8,82.9,439.8,83.2z M400.4,112.1c4.6,0,11.8-6.6,18.4-18.7c2.7-4.6,4.8-9.1,5.9-12.8
		c-5.7-3.6-9.5-8.2-10.9-14.5c-3.7,3.6-7.1,8-10.2,13.4c-4.6,8.6-7.5,18.6-7.5,25.2C396.1,110,397.7,112.1,400.4,112.1z M430,63.1
		c0-2.7-1.4-3.7-2.7-3.7c-1.1,0-2.7,1.4-2.7,4.3c0,3.2,0.9,7.9,2.9,10.2C429.3,69.7,430,65.4,430,63.1z"/>
</g>
</svg>
